<svg xmlns="http://www.w3.org/2000/svg" viewBox="0 0 480.016 480.016"><path d="M472.424 313.976l-22.232-9.36-8.248-19.896 9.12-22.4a8 8 0 00-1.752-8.672l-26.072-26.064a8 8 0 00-8.672-1.752l-22.4 9.12-19.904-8.248-9.344-22.232a8 8 0 00-7.376-4.896h-36.872a8 8 0 00-7.376 4.904l-9.36 22.224-19.896 8.248-22.4-9.12a8 8 0 00-8.672 1.752l-26.072 26.072a8 8 0 00-1.752 8.672l9.12 22.4-8.248 19.896-22.224 9.36a8 8 0 00-4.904 7.376v36.864a8 8 0 004.896 7.376l22.232 9.36 8.248 19.904-9.12 22.4a8 8 0 001.752 8.672L250.976 452a8 8 0 008.672 1.752l22.4-9.112 19.896 8.24 9.36 22.24a8 8 0 007.376 4.896h36.864a8 8 0 007.376-4.888l9.36-22.24 19.904-8.248 22.4 9.12a8 8 0 008.656-1.76l26.08-26.08a8 8 0 001.752-8.672l-9.112-22.4 8.24-19.904 22.24-9.36a7.999 7.999 0 004.88-7.368v-36.864a8 8 0 00-4.896-7.376zm-11.104 38.928l-20.368 8.584a8 8 0 00-4.288 4.312l-10.76 25.984a7.998 7.998 0 000 6.064l8.328 20.552-18.512 18.52-20.52-8.352a8.056 8.056 0 00-6.072 0l-25.976 10.768a8.002 8.002 0 00-4.312 4.28L350.224 464h-26.24l-8.568-20.368a8 8 0 00-4.312-4.288l-25.984-10.76a8 8 0 00-6.072 0l-20.52 8.344-18.552-18.528 8.352-20.52a7.944 7.944 0 000-6.072l-10.768-25.976a8.002 8.002 0 00-4.28-4.312l-20.368-8.584v-26.24l20.36-8.568a8 8 0 004.288-4.312l10.768-25.976c.8-1.948.8-4.132 0-6.08l-8.352-20.52 18.552-18.552 20.52 8.352a7.892 7.892 0 006.08 0l25.976-10.768a8 8 0 004.312-4.288l8.568-20.36h26.24l8.584 20.368a8.002 8.002 0 004.312 4.28l25.976 10.768a7.908 7.908 0 006.072 0l20.552-8.384 18.552 18.552-8.352 20.52a8.001 8.001 0 000 6.08l10.768 25.976a8 8 0 004.288 4.312l20.344 8.568v26.24z"/><path d="M337.112 259.792c-44.183 0-80 35.817-80 80s35.817 80 80 80 80-35.817 80-80c-.048-44.163-35.837-79.952-80-80zm0 144c-35.346 0-64-28.654-64-64 0-35.346 28.654-64 64-64 35.346 0 64 28.654 64 64-.04 35.33-28.67 63.96-64 64z"/><path d="M329.112 331.792h16v16h-16zm-32 0h16v16h-16zm63.968 0h16v16h-16zM336.984 89.528L315.848 78.64l-3.696-8.912 7.248-22.68a7.998 7.998 0 00-1.96-8.088l-15.08-15.08a7.998 7.998 0 00-8.088-1.96l-22.68 7.248-8.912-3.696-10.888-21.136A8 8 0 00244.68 0h-21.336a8 8 0 00-7.112 4.336L205.32 25.472l-8.904 3.696-22.648-7.248a7.999 7.999 0 00-8.096 1.96l-15.088 15.08a7.998 7.998 0 00-1.96 8.088l7.24 22.68-3.696 8.912-21.128 10.888a8 8 0 00-4.336 7.112v21.336a8 8 0 004.336 7.112L152.168 136l3.696 8.904-7.24 22.672a7.999 7.999 0 001.96 8.096l15.08 15.088a7.998 7.998 0 008.088 1.96l22.68-7.24 8.888 3.672 10.888 21.128a8 8 0 007.112 4.336h21.36a8 8 0 007.112-4.336l10.888-21.128 8.912-3.696 22.68 7.24a7.998 7.998 0 008.088-1.96l15.08-15.08a7.998 7.998 0 001.96-8.088l-7.248-22.68 3.696-8.888 21.136-10.888a8 8 0 004.336-7.136V96.64a8 8 0 00-4.336-7.112zm-11.664 23.576l-19.408 10a8 8 0 00-3.728 4.048l-5.928 14.32a7.95 7.95 0 00-.224 5.488l6.648 20.8-8.192 8.24-20.8-6.648a8.001 8.001 0 00-5.496.224l-14.32 5.936a8.001 8.001 0 00-4.04 3.72l-10 19.408h-11.616l-10-19.44a7.948 7.948 0 00-4.048-3.72l-14.32-5.936a7.95 7.95 0 00-5.488-.224l-20.8 6.648-8.24-8.184 6.648-20.8a8.001 8.001 0 00-.224-5.496l-5.936-14.32a7.948 7.948 0 00-3.72-4.048l-19.408-10v-11.608l19.408-10a8.001 8.001 0 003.72-4.04l5.936-14.32a8.001 8.001 0 00.224-5.496l-6.648-20.824 8.216-8.192 20.8 6.648c1.8.584 3.749.504 5.496-.224l14.32-5.928a8 8 0 004.048-3.728L228.216 16h11.592l10 19.408a7.996 7.996 0 004.04 3.728l14.32 5.928a7.927 7.927 0 005.496.224l20.8-6.648 8.216 8.192-6.648 20.8a8.001 8.001 0 00.224 5.496l5.928 14.32a7.996 7.996 0 003.728 4.04l19.408 10.024v11.592zM192.984 271.088l-20.856-10.752-2.488-5.984 7.152-22.4a8 8 0 00-1.968-8.096l-12-12a7.999 7.999 0 00-8.096-1.96l-22.4 7.152-5.992-2.48-10.752-20.864a8 8 0 00-7.112-4.336h-16.96a8 8 0 00-7.104 4.336l-10.76 20.864-5.984 2.48-22.344-7.144a8 8 0 00-8.104 1.96l-12 12A8 8 0 0023.224 232l7.152 22.4-2.48 5.984-20.864 10.704a8 8 0 00-4.336 7.104V295.2a8 8 0 004.336 7.112l20.864 10.728 2.48 5.992-7.152 22.4a7.999 7.999 0 001.96 8.096l12 12a8.001 8.001 0 008.136 1.944l22.4-7.152 5.984 2.488 10.752 20.856A8 8 0 0091.56 384h16.96a8 8 0 007.112-4.336l10.752-20.856 5.992-2.488 22.4 7.152a7.999 7.999 0 008.096-1.96l12-12a8 8 0 001.968-8.096l-7.152-22.4 2.488-5.992 20.856-10.752a8 8 0 004.288-7.072v-17.008a8 8 0 00-4.336-7.104zm-11.664 19.216l-19.136 9.864a7.908 7.908 0 00-3.72 4.048l-4.72 11.392a7.995 7.995 0 00-.232 5.504l6.56 20.52-5.12 5.12-20.52-6.56a7.904 7.904 0 00-5.504.232l-11.392 4.72a7.908 7.908 0 00-4.048 3.72L103.624 368h-7.2l-9.864-19.136a7.908 7.908 0 00-4.048-3.72l-11.4-4.72a7.882 7.882 0 00-5.496-.232l-20.52 6.56-5.12-5.12 6.56-20.52a8 8 0 00-.224-5.512l-4.728-11.392a7.996 7.996 0 00-3.728-4.04l-19.16-9.864v-7.2l19.128-9.864a7.996 7.996 0 003.728-4.04l4.728-11.4a7.943 7.943 0 00.224-5.504l-6.56-20.52 5.12-5.12 20.52 6.56a7.955 7.955 0 005.504-.224l11.4-4.728a7.997 7.997 0 004-3.728l9.864-19.128h7.2l9.864 19.128a7.997 7.997 0 004 3.728l11.392 4.728a8 8 0 005.512.224l20.52-6.56 5.12 5.12-6.56 20.52a7.996 7.996 0 00.232 5.496l4.72 11.4a7.908 7.908 0 003.72 4.048l19.248 9.832v7.232z"/><path d="M234.016 51.304c-30.928 0-56 25.072-56 56s25.072 56 56 56 56-25.072 56-56c-.04-30.911-25.089-55.96-56-56zm0 96c-22.091 0-40-17.909-40-40s17.909-40 40-40 40 17.909 40 40c-.026 22.08-17.92 39.974-40 40z"/><path d="M210.016 99.304h16v16h-16zm32 0h16v16h-16zM100.008 246.688c-22.091 0-40 17.909-40 40s17.909 40 40 40 40-17.909 40-40c-.026-22.08-17.92-39.974-40-40zm0 64c-13.255 0-24-10.745-24-24s10.745-24 24-24 24 10.745 24 24-10.745 24-24 24z"/><path d="M92.008 278.688h16v16h-16zm278.648-187.76l-10.672 11.92a184.439 184.439 0 0158.792 106.472l15.776-2.64a200.446 200.446 0 00-63.896-115.752zM105.024 90a199.813 199.813 0 00-59.368 92.696l15.328 4.576A183.768 183.768 0 01115.616 102l-10.592-12zm30.56 303.336l-8.856 13.328a198.2 198.2 0 0068.936 28.992L198.976 420a182.352 182.352 0 01-63.392-26.664z"/></svg>